<svg xmlns="http://www.w3.org/2000/svg" viewBox="0 0 800 600"><rect width="800" height="600" fill="#b8c9b0"/><g fill="none" stroke="#151515" opacity=".08"><circle cx="400" cy="290" r="220"/><circle cx="400" cy="290" r="170"/></g><text x="40" y="54" font-family="Arial" font-size="14" letter-spacing="3">CENTRAL DA REVERSA / DEMONSTRAÇÃO</text><ellipse cx="405" cy="474" rx="250" ry="25" fill="#151515" opacity=".12"/><path d="M170 430H640V455H170Z" fill="#8d6639"/><path d="M200 455H240V480H200ZM390 455H430V480H390ZM580 455H620V480H580Z" fill="#644624"/><path d="M320 175L460 150L510 190L365 218Z" fill="#ead2a3"/><path d="M320 175L365 218V320L320 287Z" fill="#ad8048"/><path d="M365 218L510 190V310L365 340Z" fill="#c99d60"/><rect x="205" y="298" width="200" height="133" fill="#bd9054"/><rect x="405" y="280" width="200" height="151" fill="#dec08a"/><path d="M290 298H315V430H290ZM490 280H515V430H490Z" fill="#f4e0b9" opacity=".6"/><text x="225" y="345" font-family="Arial" font-size="13" letter-spacing="2">REVERSA</text><text x="225" y="402" font-family="Arial" font-size="48" font-weight="bold">02</text><text x="535" y="364" font-family="Arial" font-size="60">↻</text><rect x="558" y="90" width="190" height="62" fill="#151515"/><text x="581" y="116" fill="#fff" font-family="Arial" font-size="12">LOTE ILUSTRATIVO</text><text x="581" y="138" fill="#fac403" font-family="Arial" font-size="14" font-weight="bold">DEMO-002</text><text x="40" y="560" font-family="Arial" font-size="12" letter-spacing="2">ILUSTRAÇÃO CONCEITUAL · NÃO É FOTO DE ESTOQUE</text></svg>